<svg xmlns="http://www.w3.org/2000/svg" viewBox="0 0 213.86 239.92"><defs><style>.cls-1{fill:#448aff;}</style></defs><title>资源 3</title><g id="图层_2" data-name="图层 2"><g id="图层_1-2" data-name="图层 1"><path class="cls-1" d="M95.59,3,11.34,51.68A22.67,22.67,0,0,0,0,71.32V168.6a22.66,22.66,0,0,0,11.34,19.64l84.25,48.64a22.64,22.64,0,0,0,22.68,0l84.25-48.64a22.68,22.68,0,0,0,11.34-19.64V71.32a22.69,22.69,0,0,0-11.34-19.64L118.27,3A22.69,22.69,0,0,0,95.59,3ZM35.42,77,72,55.9a2.83,2.83,0,0,1,4.25,2.46v65.51a2.83,2.83,0,0,1-1.42,2.46L38.25,147.47A2.84,2.84,0,0,1,34,145V79.49A2.82,2.82,0,0,1,35.42,77Zm143,85.84-70.1,40.47a2.81,2.81,0,0,1-2.83,0L47.37,169.79a2.83,2.83,0,0,1,0-4.91l36.78-21.24a2.88,2.88,0,0,1,2.84,0l18.4,10.63a2.86,2.86,0,0,0,2.83,0l27.7-16a2.85,2.85,0,0,0,1.41-2.46V58.22a2.84,2.84,0,0,1,4.26-2.46L178.44,77a2.82,2.82,0,0,1,1.42,2.45v80.94A2.82,2.82,0,0,1,178.44,162.88Z"/></g></g></svg>